<svg xmlns="http://www.w3.org/2000/svg" xmlns:xlink="http://www.w3.org/1999/xlink" viewBox="0 0 526 148.9"><defs><clipPath id="a"><rect width="511.3" height="100.82" style="fill:none"/></clipPath></defs><title>logo-black</title><g style="clip-path:url(#a)"><polygon points="0 98.8 0 0.2 38.9 0.2 66.2 72.7 91.7 0.2 129.2 0.2 129.2 98.8 105.1 98.8 105.1 36.6 79.9 98.8 49 98.8 24.8 36.6 24.8 98.8 0 98.8 0 98.8 0 98.8" style="fill:#FFFFFF"/><path d="M361.7,44.4c-1.8,3.2-4.2,5.9-4.8,9.5A21.3,21.3,0,0,0,363,73.8c4.8,4.8,11.5,6.3,18.2,5.3s13.3-7.1,15.2-13.6A22.1,22.1,0,0,0,390.3,42a24.4,24.4,0,0,0-14.8-5.8H328V98.8H303.2V0H328V16.1h54.1c15.2,0,28.8,11.5,34.7,25.9s3.5,32.7-7.2,44a43.5,43.5,0,0,1-43.3,13.6c-14.8-4.2-30-17.9-31.7-34.1a34.4,34.4,0,0,1,3.2-21.1Z" style="fill:#FFFFFF"/><path d="M449.4,16.5c1.1,2,.8,4.2.9,6.5l.6.6c6.5-10.7,20-6,31.1-6.9V36.9c-9.2,0-18.7-1.2-26.4,2-4.2,2.6-5.6,6.9-5.7,11.6V98.8H424.1V16.5Z" style="fill:#FFFFFF"/><path d="M182.3,34.4c-4.1-2.3-10.9-2.3-14.8.5a13.8,13.8,0,0,0-6.9,12.5c.2.9,1.2,1.2,2.1,1.2h25.6l1.1-.9a15.3,15.3,0,0,0-1.4-7.4,17.7,17.7,0,0,0-5.7-5.9Zm28-1.1c5.3,10,6.3,22.3,6.2,33.9l-.9.5-53.7.2a1.3,1.3,0,0,0-.5,1.7,29.7,29.7,0,0,0,25.2,10.6c7.8-.7,14.3-4.5,20.8-8.6l.5.5V89.6c-5.1,5.4-12.4,7.2-19,9.3-17.3,3.2-35.4-.8-46.6-15.1-8.7-11.5-11.5-29.1-6.2-43.1,4.1-12.1,15.8-24.3,28.6-26.7,17.9-4.7,36.9,3.6,45.5,19.3Z" style="fill:#FFFFFF"/></g><path d="M297.3,98.8H274.1V45.1c0-5.2-6.9-10-12.9-10.4s-17,4.6-17,11.5V98.8h-23V16.1h22.3a28.3,28.3,0,0,0,1.5,7.8h0c7.7-8,17.8-11.8,29.1-10.1s23,11.8,23,21.6V98.8Z" style="fill:#FFFFFF"/><path d="M500.3,26.2c1.5,0,2.8-.1,2.8-1.9s-1.3-1.7-2.5-1.7h-2.4v3.5Zm-2.1,6.4h-1.7V21.2h4.3c2.7,0,4,1,4,3.2a3,3,0,0,1-3,3.1l3.2,5h-1.9l-3-4.9h-2v4.9Zm2.1,3.4a8.7,8.7,0,0,0,8.8-9.1,8.8,8.8,0,1,0-17.6,0,8.8,8.8,0,0,0,8.8,9.1Zm-11-9.1a11,11,0,1,1,11,10.9,10.8,10.8,0,0,1-11-10.9Z" style="fill:#FFFFFF"/><path d="M235.9,139.9l3.1,8.7H242l-8.9-24.9h-3.6l-8.9,24.9h2.9l3.1-8.7Zm-.9-2.4h-7.6l2.3-6.6.9-2.6.7-2.2c.5,1.8.9,2.9,1.5,4.8l2.2,6.6Zm18.7,10.3a20.6,20.6,0,0,0,6.3,1.1c5,0,8.2-2.7,8.2-7.1a6.5,6.5,0,0,0-2-4.8c-1.1-1-2.2-1.7-5-2.8s-4.8-2.7-4.8-4.8,1.9-3.8,4.7-3.8a12.1,12.1,0,0,1,5.3,1.3l.6-2.6a18.2,18.2,0,0,0-5.9-1.1c-4.8,0-7.8,2.6-7.8,6.7a5.4,5.4,0,0,0,1.9,4.4c1,.9,1.8,1.3,4.8,2.6s3.2,1.5,4,2.2a3.9,3.9,0,0,1,1.1,2.9c0,2.7-2,4.4-5.1,4.4a17.3,17.3,0,0,1-6.1-1.3l-.4,2.5Zm19.7.8h2.7V130.3h-2.7v18.3Zm1.4-26.7a1.9,1.9,0,1,0,1.9,1.9,1.9,1.9,0,0,0-1.9-1.9Zm21.7,18.3a15,15,0,0,0-1-6.2c-1.1-2.6-3.3-4-6.5-4-4.9,0-8,3.6-8,9.5s3.3,9.5,8.7,9.5a11,11,0,0,0,6.1-1.8l-1-2.1a8.4,8.4,0,0,1-5,1.7,5.5,5.5,0,0,1-4.5-2,8.7,8.7,0,0,1-1.4-4.6ZM284,138c.1-3.6,2-5.8,4.9-5.8s4.6,2.1,4.7,5.8Zm17.4,10.6h2.7v-13c1.8-2.3,3.6-3.4,5.4-3.4a2.7,2.7,0,0,1,2.7,1.9,10.3,10.3,0,0,1,.4,3.6v10.9h2.7v-13c1.7-2.3,3.5-3.4,5.3-3.4a2.7,2.7,0,0,1,2.9,1.9,13.8,13.8,0,0,1,.4,3.9v10.6h2.7V138c0-2.9-.2-4.4-.7-5.5a4.7,4.7,0,0,0-4.5-2.6c-2.4,0-4.1,1-6.4,3.6a4.5,4.5,0,0,0-4.8-3.6c-2.2,0-4,.9-6.2,3.2v-2.9h-2.7c.1,1.2.1,2.9.1,5.9v12.3Zm45.4-8.4a15,15,0,0,0-1-6.2c-1.1-2.6-3.3-4-6.5-4-4.9,0-8,3.6-8,9.5s3.3,9.5,8.7,9.5a11,11,0,0,0,6.1-1.8l-1-2.1a8.4,8.4,0,0,1-5,1.7,5.5,5.5,0,0,1-4.5-2,8.7,8.7,0,0,1-1.4-4.6ZM334.2,138c.1-3.6,2-5.8,4.9-5.8s4.6,2.1,4.7,5.8Zm17.4,10.6h2.7v-13c1.9-2.3,3.8-3.4,5.8-3.4a3,3,0,0,1,3.1,1.9,12.2,12.2,0,0,1,.4,3.9v10.6h2.7V138c0-2.9-.2-4.4-.8-5.5a5,5,0,0,0-4.8-2.6c-2.5,0-4.4.9-6.6,3.3v-2.9h-2.7c.1,1.2.1,2.9.1,5.9v12.3Zm19.5-.9a11.6,11.6,0,0,0,5.2,1.3c3.9,0,6.4-2.2,6.4-5.5s-1.1-3.7-5-5.3-3.7-1.8-3.7-3.3,1.3-2.7,3.3-2.7a7.2,7.2,0,0,1,4.1,1.3l.8-2.2a10.6,10.6,0,0,0-5.2-1.4c-3.5,0-6,2.1-6,5.1a4.4,4.4,0,0,0,1.4,3.3,9.5,9.5,0,0,0,3.6,2c3.1,1.2,3.6,1.7,3.6,3.3s-1.4,3.1-3.5,3.1a10.2,10.2,0,0,1-4.4-1.2l-.8,2.2Zm25.6.9h4.9c4,0,4.9-.1,6.5-.9a6,6,0,0,0,3.2-5.7c0-3.6-1.9-5.7-5.7-6.1,3.5-.6,5-2.4,5-5.8s-1.2-4.8-3.3-5.6-3.1-.8-6.7-.8h-3.9v24.9Zm2.9-13.8V126h1.3c2.8,0,3.9.2,5,.8a4.7,4.7,0,0,1-.1,7.3,11.3,11.3,0,0,1-4.9.7Zm0,11.4V137h1.3a13.5,13.5,0,0,1,5,.6,3.9,3.9,0,0,1,2.4,4c0,1.9-.6,3.2-1.9,3.9s-2.3.7-5.5.7Zm31.2-15.9h-2.7v13c-1.8,2.3-3.7,3.4-5.7,3.4a2.9,2.9,0,0,1-3-1.9,12.1,12.1,0,0,1-.4-3.9V130.3h-2.7v10.5c0,2.9.2,4.4.8,5.5a4.8,4.8,0,0,0,4.6,2.6c2.4,0,4.4-1,6.5-3.3v2.9H431c-.1-1.2-.1-2.9-.1-5.9V130.3Zm4.9,17.4a11.6,11.6,0,0,0,5.2,1.3c3.9,0,6.4-2.2,6.4-5.5s-1.1-3.7-5-5.3-3.7-1.8-3.7-3.3,1.3-2.7,3.3-2.7a7.2,7.2,0,0,1,4.1,1.3l.8-2.2a10.6,10.6,0,0,0-5.2-1.4c-3.5,0-6,2.1-6,5.1a4.4,4.4,0,0,0,1.4,3.3,9.5,9.5,0,0,0,3.6,2c3.1,1.2,3.6,1.7,3.6,3.3s-1.4,3.1-3.5,3.1a10.2,10.2,0,0,1-4.4-1.2l-.8,2.2Zm16.5.9H455V130.3h-2.7v18.3Zm1.4-26.7a1.9,1.9,0,1,0,1.9,1.9,1.9,1.9,0,0,0-1.9-1.9Zm7.6,26.7H464v-13c1.9-2.3,3.8-3.4,5.8-3.4a3,3,0,0,1,3.1,1.9,12.1,12.1,0,0,1,.4,3.9v10.6h2.7V138c0-2.9-.2-4.4-.8-5.5a5,5,0,0,0-4.8-2.6c-2.5,0-4.4.9-6.6,3.3v-2.9h-2.7c.1,1.2.1,2.9.1,5.9v12.3Zm35-8.4a15,15,0,0,0-1-6.2c-1.1-2.6-3.3-4-6.5-4-4.9,0-8,3.6-8,9.5s3.3,9.5,8.7,9.5a11,11,0,0,0,6.1-1.8l-1-2.1a8.4,8.4,0,0,1-5,1.7,5.5,5.5,0,0,1-4.5-2,8.7,8.7,0,0,1-1.4-4.6ZM483.8,138c.1-3.6,2-5.8,4.9-5.8s4.6,2.1,4.7,5.8Zm16,9.7a11.6,11.6,0,0,0,5.2,1.3c3.9,0,6.4-2.2,6.4-5.5s-1.1-3.7-5-5.3-3.7-1.8-3.7-3.3,1.3-2.7,3.3-2.7a7.2,7.2,0,0,1,4.1,1.3l.8-2.2a10.6,10.6,0,0,0-5.2-1.4c-3.5,0-6,2.1-6,5.1a4.4,4.4,0,0,0,1.4,3.3,9.5,9.5,0,0,0,3.6,2c3.1,1.2,3.6,1.7,3.6,3.3s-1.4,3.1-3.5,3.1a10.2,10.2,0,0,1-4.4-1.2l-.8,2.2Zm14.6,0a11.6,11.6,0,0,0,5.2,1.3c3.9,0,6.4-2.2,6.4-5.5s-1.1-3.7-5-5.3-3.7-1.8-3.7-3.3,1.3-2.7,3.3-2.7a7.2,7.2,0,0,1,4.1,1.3l.8-2.2a10.6,10.6,0,0,0-5.2-1.4c-3.5,0-6,2.1-6,5.1a4.4,4.4,0,0,0,1.4,3.3,9.5,9.5,0,0,0,3.6,2c3.1,1.2,3.6,1.7,3.6,3.3s-1.4,3.1-3.5,3.1a10.2,10.2,0,0,1-4.4-1.2l-.8,2.2Z" style="fill:#FFFFFF"/></svg>